# xmcd
#
# Track frame offsets:
#	150
#	22299
#	37658
#	51598
#	66963
#	80167
#	96603
#	110586
#	127328
#	144471
#	159205
#	173220
#
# Disc length: 2494 seconds
#
# Revision: 1
# Processed by: cddbd v1.5.2PL0 Copyright (c) Steve Scherf et al.
# Submitted via: audiograbber 1.83.01
#
DISCID=b309bc0c
DTITLE=George Jones - Burn Your Playhouse Down
DYEAR=2008
DGENRE=Country
TTITLE0=You And Me And Time (With Georgette Jones)
TTITLE1=The Window Up Above (With Leon Russell)
TTITLE2=She Once Lived Here (With Ricky Skaggs)
TTITLE3=Rockin' Years (With Dolly Parton)
TTITLE4=Burn Your Playhouse Down (With Keith Richards)
TTITLE5=Selfishness In Man (With Vince Gill)
TTITLE6=Tavern Choir (With Jim Lauderdale)
TTITLE7=I Always Get It Right With You (With Shelby Lynne)
TTITLE8=When The Grass Grows Over Me (With Mark Chesnutt)
TTITLE9=I Always Get Lucky With You (With Mark Knopfler)
TTITLE10=You're Still On My Mind (With Marty Stuart)
TTITLE11=Lovin' You, Lovin' Me (With Tammy Wynette)
EXTD=
EXTT0=
EXTT1=
EXTT2=
EXTT3=
EXTT4=
EXTT5=
EXTT6=
EXTT7=
EXTT8=
EXTT9=
EXTT10=
EXTT11=
PLAYORDER=
